<?xml version="1.0" encoding="utf-8"?>
<!-- Generator: Adobe Illustrator 19.0.0, SVG Export Plug-In . SVG Version: 6.00 Build 0)  -->
<svg version="1.1" id="Layer_1" xmlns="http://www.w3.org/2000/svg" xmlns:xlink="http://www.w3.org/1999/xlink" x="0px" y="0px"
	 width="16px" height="16px" viewBox="0 0 16 16" style="enable-background:new 0 0 16 16;" xml:space="preserve">
<g id="XMLID_2_">
	<g id="XMLID_9_">
		<path id="XMLID_10_" d="M1.6,16c-0.1,0-0.2,0-0.2,0C0.5,16,0,15.5,0,14.6c0-0.9,0-2.7,0-4c0-0.6,0.3-1.3,1.4-1.4
			c1.3-0.2,2.4-0.5,3.2-0.8c0.9-0.4,1.5,0.2,1.7,0.5c0.1,0.1,0.2,0.2,0.2,0.4C6.9,8.9,7.5,8.5,8,8c0.5-0.5,0.9-1.1,1.2-1.5
			C9.1,6.5,8.9,6.4,8.8,6.3C8.5,6.1,7.9,5.6,8.3,4.6c0.3-0.8,0.6-1.9,0.8-3.2C9.2,0.3,9.9,0,10.5,0c1.3,0,3.2,0,4,0
			C15.5,0,16,0.5,16,1.3c0,1.4-0.2,6.2-4.3,10.3C7.7,15.6,3.2,16,1.6,16z M1.5,14.5c1.4,0.1,5.5-0.3,9.2-3.9
			c3.7-3.7,3.9-7.9,3.9-9.2c0,0,0,0,0,0c-1,0-3.2,0-4,0c0,0,0,0.1,0,0.1c-0.1,1-0.4,2.4-0.8,3.6C9.8,5.2,9.9,5.2,10,5.3
			c0.1,0.1,0.3,0.1,0.4,0.2c0.5,0.3,0.6,0.8,0.4,1.3C10.5,7.1,9.9,8.2,9,9c0,0,0,0,0,0c-0.8,0.8-1.9,1.5-2.3,1.7
			c-0.5,0.2-1,0.1-1.3-0.4c-0.1-0.1-0.1-0.3-0.2-0.4c0-0.1-0.1-0.2-0.1-0.3C4.2,10,3,10.3,1.6,10.5c0,0-0.1,0-0.1,0
			C1.5,11.4,1.4,13.6,1.5,14.5C1.5,14.5,1.5,14.5,1.5,14.5z"/>
	</g>
	<g id="XMLID_6_">
		<g id="XMLID_7_">
			<path id="XMLID_8_" d="M0.7,6.6C0.3,6.6,0,6.3,0,5.9C0,2.7,2.7,0,5.9,0c0.4,0,0.7,0.3,0.7,0.7S6.3,1.5,5.9,1.5
				c-2.5,0-4.5,2-4.5,4.5C1.5,6.3,1.1,6.6,0.7,6.6z"/>
		</g>
	</g>
	<g id="XMLID_3_">
		<g id="XMLID_4_">
			<path id="XMLID_5_" d="M4,6.3C3.6,6.3,3.3,6,3.3,5.6c0-1.3,1-2.3,2.3-2.3C6,3.3,6.3,3.6,6.3,4S6,4.7,5.6,4.7
				c-0.5,0-0.9,0.4-0.9,0.9C4.7,6,4.4,6.3,4,6.3z"/>
		</g>
	</g>
</g>
</svg>
