<?xml version="1.0" encoding="utf-8"?>
<!-- Generator: Adobe Illustrator 19.0.0, SVG Export Plug-In . SVG Version: 6.00 Build 0)  -->
<svg version="1.1" id="Layer_1" xmlns="http://www.w3.org/2000/svg" xmlns:xlink="http://www.w3.org/1999/xlink" x="0px" y="0px"
	 width="6px" height="12px" viewBox="0 0 6 12" style="enable-background:new 0 0 6 12;" xml:space="preserve">
<style type="text/css">
	.st0{fill-rule:evenodd;clip-rule:evenodd;}
</style>
<path id="XMLID_1_" class="st0" d="M3.9,12c-0.8,0-1.7,0-2.5,0c0-2,0-4,0-6C1,6,0.4,6,0,6c0-0.7,0-1.4,0-2.1c0.4,0,0.9,0,1.4,0
	c0-0.1,0-0.1,0-0.2c0-0.5,0-1.1,0-1.6c0.1-1.1,0.8-2,2-2.1C4,0,4.6,0,5.3,0c0.2,0,0.3,0,0.5,0c0,0.7,0,1.4,0,2.1c-0.2,0-0.4,0-0.5,0
	c-0.3,0-0.6,0-0.9,0c-0.2,0-0.4,0.2-0.4,0.4c0,0.4,0,0.8,0,1.2c0,0.1,0,0.1,0,0.2c0.6,0,1.5,0,2.1,0C5.9,4.6,5.9,5.3,5.8,6
	C5.2,6,4.4,6,3.9,6C3.9,8,3.9,10,3.9,12z"/>
</svg>
