<?xml version="1.0" encoding="utf-8"?>
<!-- Generator: Adobe Illustrator 19.0.0, SVG Export Plug-In . SVG Version: 6.00 Build 0)  -->
<svg version="1.1" id="Layer_1" xmlns="http://www.w3.org/2000/svg" xmlns:xlink="http://www.w3.org/1999/xlink" x="0px" y="0px"
	 width="18px" height="12px" viewBox="0 0 18 12" style="enable-background:new 0 0 18 12;" xml:space="preserve">
<g id="XMLID_4_">
	<path id="XMLID_2_" d="M10,1.5C9.5,2.1,9,2.7,8.5,3.3C8.4,3.2,8.3,3.1,8.2,3.1C6.1,1.5,3.1,2.6,2.5,5.2c-0.5,2,0.8,4,2.8,4.4
		c0.8,0.2,1.6,0.1,2.4-0.3c0.8-0.4,1.3-1,1.5-1.9c-0.1,0-0.2,0-0.3,0c-0.9,0-1.8,0-2.6,0C6.1,7.4,6,7.3,6,7.1c0-0.6,0-1.2,0-1.9
		C6,5.1,6.1,5,6.2,5C8,5,9.8,5,11.5,5c0.1,0,0.2,0,0.2,0.1c0,1,0,1.9-0.2,2.9c-0.6,2.1-2,3.4-4.1,3.8c-2.3,0.5-4.3-0.1-5.9-1.9
		c-2.9-3.3-1.5-8.4,2.8-9.7c2-0.6,3.8-0.2,5.5,1C9.8,1.4,9.9,1.4,10,1.5z"/>
	<path id="XMLID_1_" d="M16.3,6.5c0,0.5,0,1,0,1.4c0,0.3,0,0.3-0.3,0.3c-0.3,0-0.6,0-0.9,0c-0.2,0-0.2-0.1-0.2-0.2
		c0-0.4,0-0.9,0-1.3c0-0.2,0-0.2-0.2-0.2c-0.4,0-0.9,0-1.3,0c-0.2,0-0.2,0-0.2-0.2c0-0.3,0-0.7,0-1c0-0.2,0.1-0.2,0.2-0.2
		c0.4,0,0.9,0,1.3,0c0.2,0,0.2-0.1,0.2-0.2c0-0.4,0-0.9,0-1.3c0-0.2,0.1-0.2,0.2-0.2c0.3,0,0.7,0,1,0c0.1,0,0.2,0.1,0.2,0.2
		c0,0.5,0,0.9,0,1.4c0,0.2,0,0.2,0.2,0.2c0.4,0,0.9,0,1.3,0C17.9,5,18,5,18,5.2c0,0.3,0,0.7,0,1c0,0.2-0.1,0.2-0.2,0.2
		c-0.5,0-1,0-1.4,0C16.3,6.5,16.3,6.5,16.3,6.5z"/>
</g>
</svg>
