<?xml version="1.0" encoding="utf-8"?>
<!-- Generator: Adobe Illustrator 19.0.0, SVG Export Plug-In . SVG Version: 6.00 Build 0)  -->
<svg version="1.1" id="Layer_1" xmlns="http://www.w3.org/2000/svg" xmlns:xlink="http://www.w3.org/1999/xlink" x="0px" y="0px"
	 width="12px" height="12px" viewBox="0 0 12 12" style="enable-background:new 0 0 12 12;" xml:space="preserve">
<g id="XMLID_70_">
	<path id="XMLID_68_" d="M6.7,4.6C6.8,4.5,7,4.3,7.1,4.2c0.4-0.4,1-0.8,1.8-0.8c1.1,0,1.6,0.3,2,0.6C11.3,4.5,12,5.2,12,7.4
		c0,0.6,0,3.1,0,4.2c0,0.3-0.2,0.5-0.5,0.5H9.8c-0.3,0-0.5-0.2-0.5-0.5c0-1,0-3.2,0-4.2c0-0.5-0.2-1.5-1.4-1.5s-1.4,1-1.4,1.5
		c0,1,0,3.2,0,4.2c0,0.3-0.2,0.5-0.5,0.5H4.4c-0.3,0-0.5-0.2-0.5-0.5l0-7.4c0-0.3,0.2-0.5,0.5-0.5l1.8,0c0.2,0,0.3,0.1,0.3,0.3
		c0,0,0,0.5,0,0.7C6.5,4.7,6.6,4.7,6.7,4.6z"/>
	<path id="XMLID_67_" d="M2.3,12H0.6c-0.3,0-0.5-0.2-0.5-0.5V4.1c0-0.3,0.2-0.5,0.5-0.5h1.7c0.3,0,0.5,0.2,0.5,0.5v7.4
		C2.8,11.8,2.6,12,2.3,12z"/>
	<path id="XMLID_66_" d="M1.5,3C0.6,3,0,2.3,0,1.5C0,0.7,0.7,0,1.5,0C2.3,0,3,0.7,2.9,1.5C2.9,2.3,2.3,3,1.5,3z"/>
</g>
</svg>
