<?xml version="1.0" encoding="utf-8"?>
<!-- Generator: Adobe Illustrator 19.0.0, SVG Export Plug-In . SVG Version: 6.00 Build 0)  -->
<svg version="1.1" id="Layer_1" xmlns="http://www.w3.org/2000/svg" xmlns:xlink="http://www.w3.org/1999/xlink" x="0px" y="0px"
	 width="14px" height="16px" viewBox="0 0 14 16" style="enable-background:new 0 0 14 16;" xml:space="preserve">
<g id="XMLID_2_">
	<path id="XMLID_4_" d="M14,11.1c0-0.4,0-0.8,0-1.3c0-2.3-1-3.5-2.7-4.2V4.4C11.3,2,9.4,0,7,0S2.7,2,2.7,4.4v1.2
		C1.1,6.3,0,7.5,0,9.8c0,0.4,0,0.7,0,1c0,1.7-0.1,3.2,0.9,4.2C1.5,15.7,2.4,16,3.6,16c0.1,0,6.9,0,7.1,0
		C14.2,15.8,14.1,13.2,14,11.1z M4.1,4.4c0-1.6,1.3-3,2.9-3s2.9,1.3,2.9,3v0.8C9,5.1,8,5.1,7,5.1c-1,0-2,0-2.9,0.2V4.4z M10.6,14.5
		c-0.2,0-6.7,0-7,0c-0.8,0-1.4-0.2-1.7-0.5c-0.5-0.6-0.5-1.8-0.5-3.2c0-0.3,0-0.7,0-1.1c0-2.2,0.9-3.3,5.5-3.3s5.5,1.1,5.5,3.3
		c0,0.5,0,0.9,0,1.3C12.6,13.6,12.6,14.4,10.6,14.5z"/>
	<path id="XMLID_3_" d="M7,8.9c-0.6,0-1.1,0.5-1.1,1.1c0,0.4,0.2,0.7,0.5,0.9v0.6c0,0.4,0.3,0.7,0.6,0.7s0.6-0.3,0.6-0.7v-0.6
		c0.3-0.2,0.5-0.5,0.5-0.9C8.1,9.4,7.6,8.9,7,8.9z"/>
</g>
</svg>
