<?xml version="1.0" encoding="utf-8"?>
<!-- Generator: Adobe Illustrator 23.0.2, SVG Export Plug-In . SVG Version: 6.00 Build 0)  -->
<svg version="1.1" id="Layer_1" xmlns="http://www.w3.org/2000/svg" xmlns:xlink="http://www.w3.org/1999/xlink" x="0px" y="0px"
	 width="317px" height="57px" viewBox="0 0 317 57" style="enable-background:new 0 0 317 57;" xml:space="preserve">
<style type="text/css">
	.st0{fill-rule:evenodd;clip-rule:evenodd;fill:#E91C4D;}
</style>
<g id="Layer_x0020_1">
	<path class="st0" d="M210.7,5.5l-3.2,29.8c-0.3,3.2-0.3,6.7,0.8,9.8c0.9,2.6,2.3,4.8,4.4,6.5c2.2,1.8,4.9,3,7.6,3.8
		c3.3,0.9,6.8,1.2,10.2,1.2c3.7,0,7.5-0.4,11.1-1.2c3.1-0.7,6.2-1.8,9-3.5l0,0c2.9-1.6,4.6-4.1,4.9-7.4l3.5-32.2
		c0.1-1.3,0.2-2.8-0.2-4c-0.3-0.9-0.7-1.7-1.4-2.3c-0.8-0.6-1.7-1-2.7-1.1c-1.3-0.2-2.7-0.3-4-0.3c-1.6,0-3.1,0.1-4.6,0.3
		c-0.9,0.1-1.9,0.3-2.8,0.5l-4,37l-0.4,0.2c-0.8,0.4-1.7,0.7-2.6,0.9c-1.3,0.4-2.8,0.4-4.2,0.4c-2.3,0-4.7-0.4-6.4-2.1
		c-1.8-1.7-1.9-4.5-1.7-6.8l2.5-22.8c0.1-1.3,0.2-2.8-0.2-4c-0.3-0.9-0.7-1.7-1.4-2.3c-0.8-0.6-1.7-1-2.7-1.1
		c-1.3-0.2-2.7-0.3-4-0.3c-1.6,0-3.1,0.1-4.6,0.3C212.6,5.2,211.6,5.3,210.7,5.5L210.7,5.5z M197.4,55.9l3.5-32.7
		c0.6-5.3-0.5-10.3-4.6-13.9c-4.6-4.1-11.4-5.1-17.4-5.1c-4.1,0-8.2,0.5-12.1,1.6c-3.2,0.9-6.5,2.2-9.3,4c-1.3,0.9-2.5,1.9-3.5,3.1
		c-1,1.2-1.4,2.8-1.6,4.3L149,49c-0.1,1.3-0.2,2.8,0.2,4c0.3,0.9,0.7,1.7,1.4,2.3c0.8,0.6,1.7,1,2.7,1.1c1.3,0.2,2.7,0.3,4,0.3
		c1.6,0,3.1-0.1,4.6-0.3c0.9-0.1,1.9-0.3,2.8-0.5l4-36.6l0.3-0.2c1.2-0.8,2.5-1.3,3.9-1.7c1.4-0.4,2.9-0.6,4.4-0.6
		c1.9,0,3.9,0.4,5.3,1.7c1.5,1.4,1.8,3.5,1.6,5.4l-2.7,25c-0.1,1.3-0.2,2.8,0.2,4c0.3,0.9,0.7,1.7,1.4,2.3c0.8,0.6,1.7,1,2.7,1.1
		c1.3,0.2,2.7,0.3,4,0.3c1.6,0,3.1-0.1,4.6-0.3C195.5,56.2,196.5,56.1,197.4,55.9L197.4,55.9z M16.3,55.9l4-37.1l0.3-0.2
		c0.8-0.4,1.7-0.8,2.5-1.1c1.1-0.5,2.4-0.6,3.6-0.6c1.8,0,3.6,0.4,5,1.6c1.6,1.3,1.9,3.3,1.7,5.2L30.8,49c-0.1,1.3-0.2,2.8,0.2,4
		c0.3,0.9,0.7,1.7,1.4,2.3c0.8,0.6,1.7,1,2.7,1.1c1.3,0.2,2.7,0.3,4,0.3c1.5,0,3-0.1,4.5-0.3c1-0.1,2-0.3,2.9-0.5l3.8-35.4
		c0-0.2,0-0.4,0-0.6l-0.1-0.4l0.3-0.3c0.8-0.7,1.9-1.2,2.9-1.5c1.1-0.4,2.3-0.7,3.5-0.7c1.8,0,3.8,0.4,5.2,1.6
		c1.5,1.3,1.8,3.3,1.5,5.2L61.1,49c-0.1,1.3-0.2,2.8,0.2,4c0.3,0.9,0.7,1.7,1.4,2.3c0.8,0.6,1.7,1,2.7,1.1c1.3,0.2,2.7,0.3,4,0.3
		c1.6,0,3.1-0.1,4.6-0.3c0.9-0.1,1.9-0.3,2.8-0.5L80.4,23c0.3-2.9,0.3-6.1-0.8-8.8c-0.8-2.2-2.1-4.2-3.9-5.7c-1.8-1.5-4-2.6-6.3-3.2
		c-2.5-0.7-5-1-7.6-1c-3.2,0-6.5,0.3-9.5,1.3c-2.6,0.9-5.1,2-7.4,3.4l-0.4,0.3l-0.4-0.3c-1.9-1.7-4.2-2.8-6.6-3.5
		c-2.7-0.8-5.4-1.2-8.2-1.2c-3.8,0-7.5,0.5-11.1,1.6C15,6.7,11.8,8,9,9.8c-1.3,0.8-2.5,1.8-3.5,3C4.6,14,4.1,15.5,4,17L0.5,49
		c-0.1,1.3-0.2,2.8,0.2,4c0.3,0.9,0.7,1.7,1.4,2.3c0.8,0.6,1.7,1,2.7,1.1c1.3,0.2,2.7,0.3,4,0.3c1.6,0,3.1-0.1,4.6-0.3
		C14.4,56.2,15.4,56.1,16.3,55.9L16.3,55.9z M121.1,51.5c0.1-3.1,2.7-5.9,5.8-6.2c3.1-0.3,5.6,1.9,5.5,5c-0.1,3.1-2.7,5.9-5.8,6.2
		C123.5,56.9,121,54.6,121.1,51.5L121.1,51.5z M99.1,52.9c0.1-2.3,2-4.4,4.3-4.6c2.3-0.2,4.2,1.4,4.1,3.7c-0.1,2.3-2,4.4-4.3,4.6
		C100.9,56.9,99.1,55.2,99.1,52.9L99.1,52.9z M140.6,34.3c-0.8,0.5-1.6,1.1-2.5,1.6c-2.2,1.3-4.4,2.4-6.8,3.2c-1.5,0.5-3,1-4.5,1.4
		c-4.9,1.2-10.3,1.3-14.6-0.6c-7.8-3.3-10.1-14.1-6.2-21c1.5-2.6,3.8-4.6,7.3-6.1c4.6-2,11.1-1.6,14.5,2.4c0.7,0.9,1.3,1.9,1.6,3
		l0.1,0.4l-14.8,3.3c-0.8,0.2-1.8,0.5-2.5,1c-0.5,0.4-0.9,0.8-1.1,1.4c-0.2,0.6-0.2,1.3-0.1,1.9c0.2,0.9,0.4,1.8,0.7,2.6
		c0.3,1,0.8,1.9,1.2,2.8c0.3,0.6,0.6,1.2,1,1.7l18-4.4l0,0L137,28c2.2-0.5,4.1-1.6,5.4-3.5c1.5-2.1,1.8-4.8,1.5-7.4
		c-0.4-3.1-1.8-6-3.7-8.4c-5.4-6.9-14.2-9.1-22.6-8.3c-3.7,0.3-7.4,1.2-10.9,2.5c-3.5,1.3-6.7,3.1-9.5,5.5c-2.9,2.4-5.1,5.4-6.8,8.7
		c-3.2,6.3-3.7,13.5-1.1,20.2c1.9,4.9,5.2,8.9,9.3,11.8c0.1-0.2,0.3-0.4,0.4-0.5c1.1-1.2,2.6-2,4.3-2.2c0.3,0,0.5,0,0.8,0
		c1.4,0,2.6,0.6,3.6,1.4c0.9,0.9,1.5,2,1.7,3.4c0,0.2,0,0.5,0,0.7c0,0.5-0.1,1-0.2,1.5c0.7,0.1,1.3,0.2,2,0.3c2.5,0.2,5.3,0.2,8.2,0
		c-0.1-0.4-0.2-0.8-0.2-1.2c0-0.3,0-0.6,0-0.9c0.1-2.1,0.9-4,2.3-5.5c1.4-1.5,3.3-2.5,5.4-2.7c0.3,0,0.7,0,1,0
		c1.7,0,3.3,0.7,4.4,1.7c1.2,1.1,1.9,2.5,2.1,4.2c0,0.3,0,0.6,0,0.9c0,0.1,0,0.2,0,0.3c0.2-0.1,0.4-0.2,0.7-0.3
		c3.3-1.4,6.5-3.9,7.5-7.5C143.4,39.8,142.4,36.8,140.6,34.3L140.6,34.3z M261.6,53.3c0-1,0.3-1.8,0.9-2.5c0.6-0.7,1.4-1,2.5-1
		c1.1,0,1.9,0.3,2.5,1c0.6,0.7,0.9,1.5,0.9,2.5c0,1-0.3,1.8-0.9,2.5c-0.6,0.7-1.4,1-2.5,1c-1.1,0-1.9-0.3-2.5-1
		C261.9,55.1,261.6,54.2,261.6,53.3z M278.5,52.3c0.4,0,0.8,0,1.3-0.1c0.5-0.1,0.8-0.2,1.1-0.3l0-2.8l-2.5,0.2
		c-0.7,0-1.2,0.2-1.6,0.4c-0.4,0.2-0.6,0.6-0.6,1.1c0,0.5,0.2,0.9,0.5,1.1C277,52.2,277.7,52.3,278.5,52.3L278.5,52.3z M278.3,38.4
		c1.3,0,2.4,0.1,3.5,0.4c1,0.3,1.9,0.7,2.7,1.2c0.7,0.5,1.3,1.2,1.7,2c0.4,0.8,0.6,1.8,0.6,2.9l0,7.9c0,0.6-0.2,1.1-0.5,1.5
		c-0.3,0.4-0.7,0.7-1.2,1c-1.5,0.9-3.7,1.4-6.5,1.4c-1.2,0-2.4-0.1-3.4-0.4c-1-0.2-1.9-0.6-2.6-1.1c-0.7-0.5-1.3-1.1-1.7-1.8
		c-0.4-0.7-0.6-1.6-0.6-2.5c0-1.6,0.5-2.9,1.5-3.7c1-0.9,2.5-1.4,4.5-1.6l4.6-0.5v-0.2c0-0.7-0.3-1.2-0.9-1.5
		c-0.6-0.3-1.5-0.4-2.6-0.4c-0.9,0-1.8,0.1-2.6,0.3c-0.8,0.2-1.6,0.4-2.3,0.7c-0.3-0.2-0.6-0.5-0.8-1c-0.2-0.4-0.3-0.9-0.3-1.4
		c0-0.6,0.1-1.1,0.4-1.5c0.3-0.4,0.7-0.7,1.4-0.9c0.7-0.3,1.5-0.4,2.4-0.6C276.6,38.5,277.5,38.4,278.3,38.4L278.3,38.4z
		 M298.6,38.4c1,0,1.9,0.1,2.8,0.4c0.9,0.3,1.7,0.7,2.4,1.2c0.7-0.5,1.5-0.9,2.4-1.2c0.9-0.3,1.9-0.5,3.2-0.5c0.9,0,1.8,0.1,2.6,0.4
		c0.9,0.2,1.6,0.6,2.3,1.1c0.7,0.5,1.2,1.2,1.6,2c0.4,0.8,0.6,1.9,0.6,3.1l0,11.1c-0.2,0.1-0.6,0.1-1.1,0.2c-0.5,0.1-1,0.1-1.6,0.1
		c-0.5,0-1,0-1.4-0.1c-0.4-0.1-0.8-0.2-1-0.4c-0.3-0.2-0.5-0.5-0.7-0.9c-0.2-0.4-0.2-0.8-0.2-1.4l0-8.4c0-0.7-0.2-1.2-0.6-1.5
		c-0.4-0.3-0.9-0.5-1.6-0.5c-0.3,0-0.7,0.1-1.1,0.2c-0.4,0.2-0.7,0.3-0.8,0.5c0,0.1,0,0.2,0,0.3c0,0.1,0,0.2,0,0.2l0,11.7
		c-0.3,0.1-0.6,0.1-1.1,0.2c-0.5,0.1-1,0.1-1.5,0.1s-1,0-1.4-0.1c-0.4-0.1-0.8-0.2-1-0.4c-0.3-0.2-0.5-0.5-0.7-0.9
		c-0.2-0.4-0.2-0.8-0.2-1.4l0-8.4c0-0.7-0.2-1.2-0.6-1.5c-0.4-0.3-1-0.5-1.6-0.5c-0.4,0-0.8,0.1-1.1,0.2c-0.3,0.1-0.6,0.3-0.8,0.4
		l0,12.4c-0.2,0.1-0.6,0.1-1.1,0.2c-0.5,0.1-1,0.1-1.6,0.1c-0.5,0-1,0-1.4-0.1c-0.4-0.1-0.8-0.2-1-0.4c-0.3-0.2-0.5-0.5-0.7-0.9
		c-0.2-0.4-0.2-0.8-0.2-1.4l0-10.7c0-0.6,0.1-1.1,0.4-1.5c0.3-0.4,0.6-0.7,1.1-1.1c0.8-0.6,1.8-1,3-1.4
		C296.1,38.6,297.3,38.4,298.6,38.4L298.6,38.4z"/>
</g>
</svg>
