<?xml version="1.0" encoding="utf-8"?>
<!-- Generator: Adobe Illustrator 19.0.0, SVG Export Plug-In . SVG Version: 6.00 Build 0)  -->
<svg version="1.1" id="Layer_1" xmlns="http://www.w3.org/2000/svg" xmlns:xlink="http://www.w3.org/1999/xlink" x="0px" y="0px"
	 width="12px" height="12px" viewBox="0 0 12 12" style="enable-background:new 0 0 12 12;" xml:space="preserve">
<style type="text/css">
	.st0{fill:#A3000E;}
</style>
<path id="XMLID_2_" class="st0" d="M11.8,10.6l-1.6-1.6c0.7-0.9,1.1-2.1,1.1-3.4C11.2,2.5,8.7,0,5.6,0S0,2.5,0,5.6s2.5,5.6,5.6,5.6
	c1.2,0,2.4-0.4,3.3-1.1l1.7,1.6c0.2,0.2,0.4,0.2,0.6,0.2s0.4-0.1,0.6-0.2C12.1,11.4,12.1,10.9,11.8,10.6z M1.7,5.6
	c0-2.2,1.8-3.9,4-3.9s4,1.8,4,3.9s-1.8,3.9-4,3.9S1.7,7.8,1.7,5.6z"/>
</svg>
