<?xml version="1.0" encoding="utf-8"?>
<!-- Generator: Adobe Illustrator 19.0.0, SVG Export Plug-In . SVG Version: 6.00 Build 0)  -->
<svg version="1.1" id="Layer_1" xmlns="http://www.w3.org/2000/svg" xmlns:xlink="http://www.w3.org/1999/xlink" x="0px" y="0px"
	 width="18px" height="16px" viewBox="0 0 18 16" style="enable-background:new 0 0 18 16;" xml:space="preserve">
<style type="text/css">
	.st0{fill:#D3D3D3;}
</style>
<g id="XMLID_2_">
	<path id="XMLID_3_" class="st0" d="M9,16c-0.4,0-0.9-0.1-1.2-0.4c-2.2-1.5-5.2-4-6.5-6.1C0.1,7.8-0.5,5,0.6,3c1.1-1.9,2.8-3,4.7-3
		C6.7,0,7.8,0.7,9,1.8C10.2,0.7,11.3,0,12.7,0c1.9,0,3.7,1.1,4.7,3c1.1,2,0.5,4.8-0.7,6.5c-1.4,2.1-4.4,4.6-6.5,6.1c0,0,0,0,0,0
		C9.9,15.9,9.4,16,9,16z M5.3,1.5c-0.8,0-2.4,0.3-3.5,2.3C1,5.2,1.5,7.4,2.4,8.7c1.2,1.8,3.9,4.1,6.2,5.7c0.3,0.2,0.6,0.2,0.9,0h0
		c2.2-1.5,5-3.9,6.2-5.7c0.9-1.3,1.4-3.6,0.6-5c-1.1-2-2.7-2.3-3.5-2.3c-1,0-1.8,0.5-2.8,1.5C9.4,3.4,8.6,3.4,8.1,3
		C7.1,2,6.3,1.5,5.3,1.5z"/>
</g>
</svg>
