<?xml version="1.0" encoding="utf-8"?>
<!-- Generator: Adobe Illustrator 19.0.0, SVG Export Plug-In . SVG Version: 6.00 Build 0)  -->
<svg version="1.1" id="Layer_1" xmlns="http://www.w3.org/2000/svg" xmlns:xlink="http://www.w3.org/1999/xlink" x="0px" y="0px"
	 width="14px" height="12px" viewBox="0 0 14 12" style="enable-background:new 0 0 14 12;" xml:space="preserve">
<path id="XMLID_1_" d="M14,1.5c-0.1,0.2-0.3,0.4-0.4,0.6c-0.3,0.3-0.5,0.6-0.8,0.8C12.6,3,12.6,3,12.6,3.1c0,1.5-0.3,2.9-1,4.3
	c-0.8,1.7-2,3-3.7,3.8c-0.8,0.4-1.6,0.6-2.4,0.7C5.1,12,4.6,12,4.1,12c-1.4-0.1-2.8-0.5-4-1.3c0,0-0.1,0-0.1-0.1
	c1.6,0.2,3-0.3,4.2-1.3C2.9,9.3,2,8.6,1.5,7.3C2,7.3,2.4,7.4,2.8,7.2c-1.7-0.4-2.4-2-2.3-3c0.4,0.2,0.8,0.3,1.3,0.4
	C1.1,4,0.7,3.3,0.6,2.4C0.5,1.6,0.7,1,0.9,0.6c1.6,1.9,3.5,3,6,3.2c0-0.2,0-0.3-0.1-0.5C6.8,2.4,7,1.7,7.5,1.1C8.1,0.3,8.9,0,9.8,0
	c0.7,0,1.4,0.3,1.9,0.8C11.8,0.9,11.9,1,12,0.9c0.5-0.1,1-0.3,1.5-0.6c0,0,0.1-0.1,0.2-0.1c-0.1,0.4-0.3,0.7-0.5,0.9
	c-0.2,0.3-0.4,0.5-0.7,0.7c0.2,0,0.5-0.1,0.7-0.1C13.5,1.7,13.7,1.5,14,1.5C14,1.5,14,1.5,14,1.5z"/>
</svg>
