<?xml version="1.0" encoding="utf-8"?>
<!-- Generator: Adobe Illustrator 19.0.0, SVG Export Plug-In . SVG Version: 6.00 Build 0)  -->
<svg version="1.1" id="Layer_1" xmlns="http://www.w3.org/2000/svg" xmlns:xlink="http://www.w3.org/1999/xlink" x="0px" y="0px"
	 width="20px" height="12px" viewBox="0 0 20 12" style="enable-background:new 0 0 20 12;" xml:space="preserve">
<path id="XMLID_2_" d="M7.3,0h4.1c0.2,0,0.3,0.1,0.3,0.3c0,0.9,0,3.5,0,4.8c0,0.1,0,0.3,0,0.4c0.1,0.3,0.2,0.4,0.5,0.3
	c0.2-0.1,0.4-0.3,0.5-0.4c0.9-0.9,1.6-2,2.2-3.1c0.3-0.6,0.6-1.2,0.9-1.8c0.1-0.2,0.2-0.2,0.5-0.2c0.8,0.1,1.5,0.1,2.3,0
	c0.6-0.1,1,0.2,0.8,0.7c-0.3,0.7-0.7,1.5-1.1,2.2c-0.5,0.9-1.1,1.8-1.7,2.7c-0.4,0.6-0.4,0.7,0.1,1.2c0.8,0.9,1.6,1.8,2.4,2.7
	c0.3,0.3,0.5,0.7,0.7,1.1c0.1,0.1,0.1,0.3,0.2,0.4c0.1,0.4-0.1,0.7-0.6,0.7c-0.9,0-1.8,0-2.7,0c-0.1,0-0.2-0.1-0.3-0.2
	c-0.9-0.9-1.7-1.8-2.6-2.6c-0.3-0.3-0.7-0.6-1.2-0.7c-0.4-0.1-0.7,0-0.7,0.5c0,0.6,0,1.2,0,1.8c0,0.1,0,0.1,0,0.2c0,0.8-0.2,1-1,1.1
	c-1.9,0.2-3.6-0.5-5.1-1.7c-1.3-1-2.3-2.3-3.1-3.7C1.6,5,0.7,3.4,0.2,1.7C0.1,1.4,0.1,1.1,0,0.8C-0.1,0.3,0.2,0,0.8,0
	c0.8,0.1,1.7,0.1,2.5,0c0.3,0,0.3,0,0.4,0.2c0.4,1.5,1,2.8,1.7,4.1c0.4,0.7,1.4,2.1,2,2.4c0.2,0.1,0.3,0,0.4-0.2c0-0.1,0-0.2,0-0.3
	c0-1.2,0-2.5,0-3.7c0-0.5-0.2-1-0.5-1.4C7.2,0.8,7.1,0.6,7.1,0.3C7.1,0.1,7.2,0,7.3,0z"/>
</svg>
